<svg width="16" height="16" viewBox="0 0 16 16" fill="none" xmlns="http://www.w3.org/2000/svg">
<path opacity="0.35" d="M8 10.6668C5.79067 10.6668 4 8.87616 4 6.66683V2.66683C4 1.93016 4.59667 1.3335 5.33333 1.3335H10.6667C11.4033 1.3335 12 1.93016 12 2.66683V6.66683C12 8.87616 10.2093 10.6668 8 10.6668Z" fill="#22313F"/>
<path d="M9.99992 13.3331C9.65859 13.2911 8.66659 12.9998 8.66659 12.9998V10.6064C8.44925 10.6431 8.22725 10.6664 7.99992 10.6664C7.77259 10.6664 7.55059 10.6431 7.33325 10.6064V12.9998C7.33325 12.9998 6.34125 13.2911 5.99992 13.3331C5.63392 13.3784 5.33325 13.6318 5.33325 13.9998C5.33325 14.3678 5.63125 14.6664 5.99992 14.6664H9.99992C10.3686 14.6664 10.6666 14.3678 10.6666 13.9998C10.6666 13.6318 10.3659 13.3784 9.99992 13.3331Z" fill="#22313F"/>
<path d="M4 2.66683V6.00016H12V2.66683C12 1.93016 11.4033 1.3335 10.6667 1.3335H5.33333C4.59667 1.3335 4 1.93016 4 2.66683Z" fill="#22313F"/>
</svg>
