<svg width="21" height="20" viewBox="0 0 21 20" fill="none" xmlns="http://www.w3.org/2000/svg">
<path opacity="0.4" d="M10.52 0C4.71 0 0.5 4.74 0.5 10C0.5 11.68 0.99 13.41 1.85 14.99C2.01 15.25 2.03 15.58 1.92 15.89L1.25 18.13C1.1 18.67 1.56 19.07 2.07 18.91L4.09 18.31C4.64 18.13 5.07 18.36 5.581 18.67C7.041 19.53 8.86 19.97 10.5 19.97C15.46 19.97 20.5 16.14 20.5 9.97C20.5 4.65 16.2 0 10.52 0" fill="#7A838C"/>
<path fill-rule="evenodd" clip-rule="evenodd" d="M10.4805 11.2901C9.77049 11.2801 9.20049 10.7101 9.20049 10.0001C9.20049 9.30011 9.78049 8.72011 10.4805 8.73011C11.1905 8.73011 11.7605 9.30011 11.7605 10.0101C11.7605 10.7101 11.1905 11.2901 10.4805 11.2901ZM5.87009 11.2901C5.17009 11.2901 4.59009 10.7101 4.59009 10.0101C4.59009 9.30011 5.16009 8.73011 5.87009 8.73011C6.58009 8.73011 7.15009 9.30011 7.15009 10.0101C7.15009 10.7101 6.58009 11.2801 5.87009 11.2901ZM13.8103 10.0101C13.8103 10.7101 14.3803 11.2901 15.0903 11.2901C15.8003 11.2901 16.3703 10.7101 16.3703 10.0101C16.3703 9.30011 15.8003 8.73011 15.0903 8.73011C14.3803 8.73011 13.8103 9.30011 13.8103 10.0101Z" fill="#7A838C"/>
</svg>
