<svg width="16" height="16" viewBox="0 0 16 16" fill="none" xmlns="http://www.w3.org/2000/svg">
<path opacity="0.35" d="M8 4.6665C9.10457 4.6665 10 3.77107 10 2.6665C10 1.56193 9.10457 0.666504 8 0.666504C6.89543 0.666504 6 1.56193 6 2.6665C6 3.77107 6.89543 4.6665 8 4.6665Z" fill="#22313F"/>
<path opacity="0.35" d="M7.99992 12.6665C9.47259 12.6665 10.6666 11.4725 10.6666 9.99984V8.6665H5.33325V9.99984C5.33325 11.4725 6.52725 12.6665 7.99992 12.6665Z" fill="#22313F"/>
<path d="M13.9047 8.99016C13.8154 8.8415 11.6687 5.3335 8.00006 5.3335C4.3314 5.3335 2.18473 8.8415 2.0954 8.99016C1.90606 9.3055 2.00806 9.7135 2.3234 9.9035C2.43073 9.96816 2.5494 9.9995 2.66673 9.9995C2.89273 9.9995 3.11273 9.88483 3.23806 9.6775C3.25006 9.65816 4.03673 8.39083 5.3834 7.50683C5.35273 7.66683 5.3334 7.8315 5.3334 8.00016V8.66683H10.6667V8.00016C10.6667 7.83083 10.6474 7.66683 10.6167 7.50683C11.9574 8.38683 12.7434 9.64683 12.7621 9.6775C12.8874 9.8855 13.1081 10.0002 13.3341 10.0002C13.4507 10.0002 13.5694 9.9695 13.6767 9.90483C13.9921 9.7155 14.0947 9.30616 13.9047 8.99016Z" fill="#22313F"/>
<path d="M5.33333 9.20312C4.44867 10.0118 4 10.9218 4 11.9138C4 13.7331 5.54333 14.9858 5.71933 15.1225C5.90067 15.2638 6.11667 15.3325 6.33 15.3325C6.626 15.3325 6.91933 15.2011 7.11667 14.9498C7.45733 14.5178 7.382 13.8898 6.952 13.5471C6.68533 13.3351 5.996 12.6278 6 11.9065C6 11.8625 6.01667 11.8178 6.02267 11.7738C5.59867 11.3018 5.33333 10.6845 5.33333 9.99979V9.20312Z" fill="#22313F"/>
<path d="M10.6667 9.20312V9.99979C10.6667 10.6845 10.4014 11.3018 9.97737 11.7738C9.98337 11.8185 10 11.8625 10 11.9065C10.004 12.6271 9.31537 13.3345 9.0487 13.5465C8.6167 13.8865 8.5387 14.5125 8.87737 14.9471C9.07403 15.2005 9.36937 15.3331 9.66737 15.3331C9.88203 15.3331 10.098 15.2645 10.2807 15.1225C10.4567 14.9858 12 13.7325 12 11.9138C12 10.9218 11.5514 10.0118 10.6667 9.20312Z" fill="#22313F"/>
</svg>
