<svg width="40" height="40" viewBox="0 0 40 40" fill="none" xmlns="http://www.w3.org/2000/svg">
<rect width="40" height="40" rx="20" fill="url(#paint0_linear_14_253)"/>
<path opacity="0.35" d="M19.9999 6.66683C12.6361 6.66683 6.66659 12.6364 6.66659 20.0002C6.66659 27.364 12.6361 33.3335 19.9999 33.3335C27.3637 33.3335 33.3333 27.364 33.3333 20.0002C33.3333 12.6364 27.3637 6.66683 19.9999 6.66683Z" fill="white"/>
<path d="M26.6667 18.3332C26.6667 18.8452 26.4721 19.3572 26.0814 19.7478L21.4147 24.4145C20.6347 25.1958 19.3667 25.1958 18.5867 24.4145L13.9201 19.7478C13.1387 18.9665 13.1387 17.7012 13.9201 16.9198C14.7001 16.1385 15.9681 16.1385 16.7481 16.9198L20.0001 20.1718L23.2521 16.9198C24.0321 16.1385 25.3001 16.1385 26.0801 16.9198C26.4721 17.3092 26.6667 17.8212 26.6667 18.3332Z" fill="white"/>
<defs>
<linearGradient id="paint0_linear_14_253" x1="32.1429" y1="-13.8182" x2="8.86427" y2="80.8996" gradientUnits="userSpaceOnUse">
<stop stop-color="#7B61FF"/>
<stop offset="1" stop-color="#7537FA"/>
</linearGradient>
</defs>
</svg>
