<svg width="16" height="16" viewBox="0 0 16 16" fill="none" xmlns="http://www.w3.org/2000/svg">
<path d="M9.04808 11.0214C8.40541 11.4168 7.59475 11.4168 6.95142 11.0214L2.66675 8.38477V12.0001C2.66675 13.1048 3.56208 14.0001 4.66675 14.0001H11.3334C12.4381 14.0001 13.3334 13.1048 13.3334 12.0001V8.38477L9.04808 11.0214Z" fill="#22313F"/>
<path opacity="0.35" d="M6.95202 1.64514L1.35935 5.08648C0.43002 5.65848 0.43002 7.00848 1.35935 7.58048L6.95135 11.0218C7.59402 11.4171 8.40469 11.4171 9.04802 11.0218L14.64 7.58048C15.5694 7.00848 15.5694 5.65848 14.64 5.08648L9.04802 1.64514C8.40535 1.24914 7.59469 1.24914 6.95202 1.64514Z" fill="#22313F"/>
<path d="M8.00008 6.6665C8.73646 6.6665 9.33341 6.21879 9.33341 5.6665C9.33341 5.11422 8.73646 4.6665 8.00008 4.6665C7.2637 4.6665 6.66675 5.11422 6.66675 5.6665C6.66675 6.21879 7.2637 6.6665 8.00008 6.6665Z" fill="#22313F"/>
<path d="M8.35339 6.23194L12.3961 3.70527C12.1034 2.69327 11.1281 2.92527 11.1281 2.92527L7.64673 5.10127L8.35339 6.23194Z" fill="#22313F"/>
</svg>
