<svg width="25" height="24" viewBox="0 0 25 24" fill="none" xmlns="http://www.w3.org/2000/svg">
<path opacity="0.4" d="M22.1599 10.44L21.1799 14.62C20.3399 18.23 18.6799 19.69 15.5599 19.39C15.0599 19.35 14.5199 19.26 13.9399 19.12L12.2599 18.72C8.08994 17.73 6.79994 15.67 7.77994 11.49L8.75994 7.30001C8.95994 6.45001 9.19994 5.71001 9.49994 5.10001C10.6699 2.68001 12.6599 2.03001 15.9999 2.82001L17.6699 3.21001C21.8599 4.19001 23.1399 6.26001 22.1599 10.44Z" fill="#7A838C"/>
<path d="M15.5601 19.3901C14.9401 19.8101 14.1601 20.1601 13.2101 20.4701L11.6301 20.9901C7.6601 22.2701 5.5701 21.2001 4.2801 17.2301L3.0001 13.2801C1.7201 9.3101 2.7801 7.2101 6.7501 5.9301L8.3301 5.4101C8.7401 5.2801 9.1301 5.1701 9.5001 5.1001C9.2001 5.7101 8.9601 6.4501 8.7601 7.3001L7.7801 11.4901C6.8001 15.6701 8.0901 17.7301 12.2601 18.7201L13.9401 19.1201C14.5201 19.2601 15.0601 19.3501 15.5601 19.3901Z" fill="#7A838C"/>
</svg>
