<svg width="16" height="16" viewBox="0 0 16 16" fill="none" xmlns="http://www.w3.org/2000/svg">
<g clip-path="url(#clip0_67_1241)">
<path opacity="0.35" d="M6.66667 5.3335C4.46067 5.3335 2.66667 7.1275 2.66667 9.3335C2.66667 10.1962 2.944 10.9935 3.41 11.6475L2.33334 12.7242L1.80467 12.1955C1.544 11.9348 1.12267 11.9348 0.862004 12.1955C0.601337 12.4562 0.601337 12.8775 0.862004 13.1382L1.39067 13.6668L0.862004 14.1955C0.601337 14.4562 0.601337 14.8782 0.862004 15.1382C0.992004 15.2682 1.16267 15.3335 1.33334 15.3335C1.504 15.3335 1.67467 15.2682 1.80467 15.1382L2.33334 14.6095L2.862 15.1382C2.992 15.2682 3.16267 15.3335 3.33334 15.3335C3.504 15.3335 3.67467 15.2682 3.80467 15.1382C4.06534 14.8775 4.06534 14.4562 3.80467 14.1955L3.276 13.6668L4.35267 12.5902C5.00667 13.0562 5.804 13.3335 6.66667 13.3335C8.87267 13.3335 10.6667 11.5395 10.6667 9.3335C10.6667 7.1275 8.87267 5.3335 6.66667 5.3335ZM6.66667 12.0002C5.196 12.0002 4 10.8042 4 9.3335C4 7.86283 5.196 6.66683 6.66667 6.66683C8.13734 6.66683 9.33334 7.86283 9.33334 9.3335C9.33334 10.8042 8.13734 12.0002 6.66667 12.0002Z" fill="black"/>
<path d="M14.6665 3.99984C14.4932 3.99984 14.3225 3.93184 14.1952 3.8045L12.1952 1.8045C12.0045 1.61384 11.9472 1.32717 12.0505 1.07784C12.1532 0.829171 12.3972 0.666504 12.6665 0.666504H14.6665C15.0352 0.666504 15.3332 0.965171 15.3332 1.33317V3.33317C15.3332 3.6025 15.1712 3.84584 14.9219 3.94917C14.8392 3.98317 14.7525 3.99984 14.6665 3.99984Z" fill="black"/>
<path d="M12.0001 4.66651C11.8294 4.66651 11.6588 4.60117 11.5288 4.47117C11.2681 4.21051 11.2681 3.78917 11.5288 3.52851L13.5288 1.52851C13.7894 1.26784 14.2108 1.26784 14.4714 1.52851C14.7321 1.78917 14.7321 2.21051 14.4714 2.47117L12.4714 4.47117C12.3414 4.60117 12.1708 4.66651 12.0001 4.66651Z" fill="black"/>
<path d="M9.33325 2.6665C7.12659 2.6665 5.33325 4.45984 5.33325 6.6665C5.33325 8.75317 6.93992 10.4732 8.98659 10.6465C9.20659 10.2598 9.33325 9.81317 9.33325 9.33317C7.85992 9.33317 6.66659 8.13984 6.66659 6.6665C6.66659 5.19317 7.85992 3.99984 9.33325 3.99984C10.8066 3.99984 11.9999 5.19317 11.9999 6.6665C11.9999 7.65984 11.4599 8.5265 10.6533 8.97984C10.6599 9.09984 10.6666 9.21317 10.6666 9.33317C10.6666 9.73984 10.6066 10.1265 10.4933 10.4932C12.1333 9.99984 13.3333 8.47317 13.3333 6.6665C13.3333 4.45984 11.5399 2.6665 9.33325 2.6665Z" fill="black"/>
</g>
<defs>
<clipPath id="clip0_67_1241">
<rect width="16" height="16" fill="white"/>
</clipPath>
</defs>
</svg>
