<svg width="16" height="16" viewBox="0 0 16 16" fill="none" xmlns="http://www.w3.org/2000/svg">
<path fillRule="evenodd" clipRule="evenodd" d="M5.68767 1.95801C7.14424 1.11168 8.9346 1.12647 10.3775 1.99676C11.8062 2.88477 12.6746 4.46961 12.6665 6.17446C12.6332 7.86812 11.7021 9.46016 10.5382 10.6909C9.86647 11.4044 9.11499 12.0354 8.29915 12.5709C8.21512 12.6194 8.12309 12.652 8.02757 12.6668C7.93565 12.6629 7.84613 12.6358 7.76709 12.5878C6.52154 11.7832 5.42881 10.7562 4.54147 9.55614C3.79898 8.55441 3.37714 7.34417 3.33325 6.08978C3.33229 4.38166 4.2311 2.80434 5.68767 1.95801ZM6.52936 6.79668C6.77437 7.40072 7.35271 7.79472 7.99432 7.79473C8.41465 7.79775 8.81871 7.62938 9.11646 7.32715C9.41421 7.02491 9.58091 6.61392 9.57942 6.18575C9.58166 5.53219 9.19689 4.94171 8.60476 4.69001C8.01263 4.43832 7.32995 4.57506 6.87546 5.03639C6.42098 5.49773 6.28435 6.19265 6.52936 6.79668Z" fill="url(#paint0_linear_14_52)"/>
<ellipse opacity="0.4" cx="7.99984" cy="14.0002" rx="3.33333" ry="0.666667" fill="url(#paint1_linear_14_52)"/>
<defs>
<linearGradient id="paint0_linear_14_52" x1="10.8333" y1="-2.58166" x2="3.03507" y2="23.5488" gradientUnits="userSpaceOnUse">
<stop stop-color="#7B61FF"/>
<stop offset="1" stop-color="#7537FA"/>
</linearGradient>
<linearGradient id="paint1_linear_14_52" x1="10.0236" y1="12.8729" x2="9.85948" y2="16.2128" gradientUnits="userSpaceOnUse">
<stop stop-color="#7B61FF"/>
<stop offset="1" stop-color="#7537FA"/>
</linearGradient>
</defs>
</svg>
