<svg width="24" height="24" viewBox="0 0 24 24" fill="none" xmlns="http://www.w3.org/2000/svg">
<path d="M19 0C16.239 0 14 2.239 14 5C14 6.977 16.001 9.704 17.471 11.441C18.27 12.385 19.73 12.385 20.529 11.441C21.999 9.704 24 6.977 24 5C24 2.239 21.761 0 19 0ZM19 7.143C17.817 7.143 16.857 6.184 16.857 5C16.857 3.816 17.817 2.857 19 2.857C20.183 2.857 21.143 3.817 21.143 5C21.143 6.183 20.183 7.143 19 7.143Z" fill="#7A838C"/>
<path opacity="0.35" d="M6.697 1.78597L4.459 3.12597C3.554 3.66797 3 4.64497 3 5.69997V19.106C3 20.38 4.39 21.167 5.482 20.512L6.696 19.785C7.098 19.544 7.547 19.415 8 19.395V1.39697C7.547 1.41697 7.098 1.54597 6.697 1.78597Z" fill="#7A838C"/>
<path opacity="0.35" d="M22.084 4.37595C21.872 3.14695 20.906 2.11895 19.688 1.84895C18.385 1.55995 17.199 2.08595 16.489 2.99995H12V21H18C19.657 21 21 19.657 21 18V7.32995C21.814 6.64295 22.289 5.56695 22.084 4.37595Z" fill="#7A838C"/>
<path d="M9.359 1.68292C8.931 1.46992 8.463 1.37592 8 1.39692V19.3949C8.464 19.3749 8.932 19.4689 9.36 19.6829L12 20.9999V2.99992L9.359 1.68292Z" fill="#7A838C"/>
</svg>
