<svg width="16" height="16" viewBox="0 0 24 24" fill="none" xmlns="http://www.w3.org/2000/svg">
<path d="M12.115 8.04699C12.616 8.54799 15.653 11.075 15.864 11.286C16.075 11.496 16.349 11.6 16.625 11.6C16.9 11.6 17.175 11.495 17.386 11.286C17.597 11.075 20.634 8.54799 21.135 8.04699C22.289 6.89299 22.289 5.02099 21.135 3.86599C19.981 2.71199 18.109 2.71199 16.955 3.86599C16.83 3.99099 16.725 4.12799 16.627 4.26799C16.529 4.12799 16.424 3.99099 16.299 3.86599C15.145 2.71199 13.273 2.71199 12.119 3.86599C10.961 5.01999 10.961 6.89099 12.115 8.04699Z" fill="#22313F"/>
<path opacity="0.35" d="M19.934 17.161C19.636 16.268 18.657 15.799 17.774 16.127L14.667 17.235C14.295 17.368 13.899 17.418 13.506 17.383C12.632 17.304 11.791 17.009 11.06 16.523L9.692 15.614C8.841 15.117 9.2 13.996 10.082 13.996L11.588 14.005C12.869 13.972 13.928 13.223 14.075 11.951C14.134 11.45 13.745 11.009 13.24 11.001H6C5.479 11.001 4.906 11.036 4.438 11.152L2.134 11.697C1.469 11.853 1 12.446 1 13.129V18.93C1 19.545 1.601 19.981 2.186 19.79L3.657 19.309C4.534 19.023 5.479 19.025 6.354 19.317L12.494 21.364C13.471 21.689 14.537 21.613 15.458 21.153L19.099 19.177C19.84 18.806 20.196 17.947 19.934 17.161Z" fill="#22313F"/>
</svg>
