<svg width="203" height="37" viewBox="0 0 203 37" fill="none" xmlns="http://www.w3.org/2000/svg">
<path d="M1.776 0.631999C1.584 0.679998 1.488 0.871999 1.296 0.919998C1.056 1.208 0.96 1.496 0.96 1.736C0.96 2.168 1.248 2.504 1.392 3.032C1.776 4.472 2.112 5.288 2.928 6.008C3.312 6.104 3.744 6.008 3.984 6.2C4.176 6.392 4.176 6.872 4.176 7.448V8.6C4.176 9.752 4.032 10.616 4.032 11.576C4.08 13.304 4.224 14.888 4.224 16.52V20.408C4.224 21.416 4.08 22.424 4.08 23.384C4.032 24.68 4.032 25.976 4.032 27.272C4.032 28.568 4.032 29.816 3.984 30.968C3.504 31.064 2.976 31.064 2.4 31.064H2.064C1.104 31.064 0.624 31.256 0.624 31.928C0.624 32.168 0.672 32.456 0.816 32.84C1.008 33.32 1.056 33.992 1.2 34.424C1.296 34.616 1.872 35.576 2.016 35.672C2.304 35.864 2.976 35.96 3.408 36.008C3.6 36.008 3.84 36.056 4.08 36.056C4.8 36.056 5.616 35.96 6.384 35.864C7.248 35.816 8.16 35.672 8.976 35.576C9.312 35.576 9.648 35.432 10.032 35.432H10.656C12.048 35.432 13.728 35.384 13.872 34.088V33.992C13.872 33.56 13.632 33.176 13.536 32.888C13.44 32.744 13.488 32.552 13.44 32.408C13.296 32.12 12.912 31.832 12.672 31.544C12.384 31.256 12.144 30.968 11.808 30.776H10.848C10.272 30.776 9.744 30.776 9.312 30.632V29.96C9.312 29 9.264 27.944 9.264 26.888C9.264 26.312 9.312 25.736 9.36 25.256C9.456 24.152 9.6 23.144 9.6 22.088V21.416C9.6 20.552 9.552 19.64 9.552 18.728V16.664C9.552 16.28 9.504 15.944 9.504 15.56C9.504 14.12 9.648 12.776 9.648 11.336C9.648 10.904 9.648 10.52 9.6 10.088V9.416C9.6 8.552 9.648 7.832 9.648 7.064C9.648 6.68 9.6 6.296 9.552 5.864V5.72C10.608 5 13.008 4.808 13.056 3.272C13.056 2.936 12.816 2.648 12.768 2.264C12.768 1.976 12.912 1.784 12.912 1.496C12.912 1.4 12.864 1.352 12.864 1.256C12.336 1.304 11.472 1.304 10.464 1.304C7.344 1.304 2.784 1.112 1.776 0.631999ZM34.7651 2.888C34.3331 1.736 33.2291 0.919998 31.9331 0.823999H31.5971C31.2611 0.823999 30.8291 0.823999 30.4451 0.871999C29.0531 0.967998 27.2291 1.16 25.4051 1.16C24.9731 1.16 24.5891 1.112 24.1571 1.112C23.5331 1.064 22.8131 1.064 22.0931 1.064C20.1251 1.064 17.9171 1.16 16.8131 1.16C15.7571 1.16 14.7491 0.727998 14.1731 0.727998C13.8371 0.727998 13.6451 0.871999 13.5971 1.304C13.5971 1.688 13.5011 2.072 13.5011 2.408V2.552C13.5011 2.744 13.6451 3.08 13.6931 3.368C13.8851 4.376 14.1251 5.096 14.6531 5.528C15.2291 5.864 15.9011 5.768 16.6691 5.912L18.4931 6.056C19.1651 6.104 19.6931 6.104 20.3651 6.2C20.4611 7.592 20.5091 9.08 20.5091 10.616C20.5091 13.304 20.3651 16.088 20.2211 18.824C20.1251 20.792 20.0291 23.72 20.0291 25.688C20.0291 27.032 19.9331 28.376 19.9331 29.672C19.9331 30.44 19.9331 31.16 20.0771 31.832C20.2691 33.032 21.2291 34.136 22.0451 34.712C22.8611 35.336 24.5411 35.336 25.6931 35.72C25.7891 35.672 26.2691 35.624 26.5571 35.576C26.7971 35.336 26.8451 35.048 26.8451 34.76C26.8451 34.52 26.7971 34.28 26.7971 34.04C26.7971 32.12 27.0851 30.152 27.0851 28.328V27.368C27.0851 26.6 27.2291 25.784 27.2291 25.016V22.904C27.2291 22.136 27.2291 21.368 27.1811 20.792C27.0851 19.784 27.0851 18.776 27.0851 17.768C27.0851 16.76 27.0851 15.752 27.1331 14.696C27.1331 13.88 27.0851 13.064 27.0851 12.248V11.624C27.1811 10.232 27.2291 8.456 27.2291 6.968V6.008C27.6131 6.056 27.9491 6.056 28.2371 6.056C29.2451 6.056 29.7731 5.864 30.8291 5.816C31.4051 5.768 31.8371 5.672 32.3171 5.528C32.3651 5.528 32.3651 5.48 32.4131 5.48C32.9891 5.336 33.5651 5.24 34.1891 5.24H34.5251C34.7651 4.952 34.8131 4.568 34.8131 4.136C34.8131 3.704 34.7651 3.272 34.7651 2.888ZM35.9531 9.224C36.1931 9.656 36.9131 9.896 37.4891 10.088C37.8251 10.136 38.6891 10.136 38.9291 10.232C39.1691 10.28 39.4091 10.28 39.6491 10.28C40.6091 10.28 41.4251 10.04 42.1451 9.656C42.6731 9.368 43.3931 8.36 43.4891 7.544V7.352C43.4891 6.008 43.0571 4.328 42.6731 3.512C42.3851 2.936 42.0011 2.648 41.6171 2.216C41.2331 1.784 40.9931 1.4 40.6091 0.967998H40.5131C40.1771 0.967998 40.1771 0.679998 39.8891 0.631999H39.7931C39.4091 0.631999 38.5931 0.823999 38.3051 0.823999C38.0651 0.823999 37.8731 0.775997 37.6811 0.775997C37.5851 0.775997 37.5371 0.775997 37.4411 0.823999C36.8651 1.016 36.6731 2.072 36.6731 2.936V3.224C36.7211 3.992 37.1051 4.712 37.3931 5.336C37.7291 6.008 38.3531 6.392 38.4491 6.968C38.4971 7.112 38.4971 7.256 38.4971 7.4C38.4971 8.408 37.5851 8.936 36.7691 9.224C36.6251 9.176 36.4811 9.128 36.3371 9.128C36.1931 9.128 36.0971 9.176 35.9531 9.224ZM44.1709 30.2C43.9309 30.488 43.8349 30.872 43.8349 31.304C43.8349 31.784 43.9309 32.264 44.0749 32.6C44.4589 33.656 45.4189 34.472 46.1389 35.096L46.2829 35.192C46.9549 35.288 47.2909 35.768 47.9149 35.912C48.2029 36.008 48.5389 35.96 48.8749 36.008C49.1629 36.104 49.4509 36.2 49.6909 36.2H49.7869C53.7709 36.2 57.8989 33.944 58.3789 29.48C58.4269 29.192 58.4269 28.904 58.4269 28.616C58.4269 27.32 57.9949 26.312 57.6109 25.16C57.0349 23.336 56.2669 22.232 55.2109 21.032C54.7309 20.504 54.2989 19.88 53.8189 19.304C52.8589 18.248 51.7549 17.144 51.0829 16.04C50.7469 15.464 50.4109 14.84 50.2669 14.216C50.2189 13.928 50.1709 13.592 50.1709 13.304C50.1709 12.488 50.4109 11.672 50.6509 11C50.6509 10.952 50.6989 10.952 50.6989 10.904C51.5149 9.656 52.4749 8.648 53.6749 7.736C54.3949 7.496 54.9229 7.064 55.7389 6.632C56.3149 6.392 57.4669 6.104 57.8029 5.672C57.9469 5.384 58.0429 5.096 58.0429 4.808C58.0429 3.848 57.2749 2.84 56.5549 2.36C56.2189 2.168 55.7869 2.072 55.3549 1.88C55.0189 1.736 54.6829 1.352 54.3469 1.208C54.0109 1.016 53.5789 0.919998 53.2429 0.727998C52.7629 0.584 52.2349 0.343997 51.7069 0.343997C51.5629 0.343997 51.4189 0.343997 51.3229 0.391999C49.7869 0.727998 49.1629 1.256 48.3469 2.12C47.3869 3.032 46.4269 3.848 45.8509 5C45.2269 6.248 44.7949 8.024 44.7949 9.848C44.7949 10.232 44.7949 10.616 44.8429 11C45.0829 13.736 46.1869 16.04 47.3389 17.816C47.9149 18.776 48.4909 19.736 49.2589 20.504C49.9789 21.32 50.7949 22.088 51.4189 22.952C51.8509 23.576 52.4269 24.536 52.4269 25.304C52.4269 25.832 52.2349 26.456 51.9949 26.84C51.6109 27.512 50.4589 28.568 49.8349 28.904C48.3469 29.768 46.2829 30.152 44.1709 30.2ZM83.7518 35.288C84.1358 35.432 84.4718 35.48 84.8078 35.48C86.0078 35.48 86.8718 34.664 86.8718 33.176V32.84C86.8718 31.784 86.4878 31.064 86.3438 29.96C86.0078 27.752 85.7678 26.072 85.4798 23.816C85.2398 21.608 85.1438 19.352 84.7598 17.096C84.1838 13.688 83.5118 10.904 82.7438 7.832C82.5038 6.824 82.4078 5.768 82.1678 4.76C81.7838 3.416 80.9678 1.928 80.0558 1.256C79.6238 0.871999 78.9998 0.584 78.4718 0.584H78.2798C77.6558 0.584 76.6958 0.775997 76.1198 1.016C75.2078 1.304 74.4878 2.168 74.0558 2.984C74.0078 3.08 74.0078 3.224 74.0078 3.32C74.0078 3.8 74.2478 4.088 74.2958 4.568C74.2958 5.24 73.9118 6.152 73.7678 6.92C72.7598 10.952 71.9918 14.936 71.1758 18.968C70.5038 22.136 70.0238 25.304 69.4478 28.712C69.2558 29.672 68.8718 32.072 68.5358 32.792C68.3438 33.08 67.9597 33.176 67.8637 33.416C67.8637 33.992 68.0557 34.184 68.1997 34.424C68.4878 34.808 68.9678 34.952 69.5918 35C70.0718 35.144 70.6478 35.336 71.1278 35.336H71.2718C71.9438 35.288 72.7118 34.904 72.8558 34.376C72.9038 34.28 72.9038 34.184 72.9038 34.088C72.9038 33.896 72.8558 33.704 72.8558 33.512V33.08C72.8558 31.304 73.3358 28.664 73.9118 26.504C74.2958 26.936 74.7278 26.984 75.1598 26.984H76.8878C77.5118 26.984 78.1358 26.936 78.6158 26.744C78.9998 26.552 79.0958 26.12 79.4798 26.12C79.5278 27.848 80.1038 28.616 80.1038 30.488C80.1038 30.872 80.0078 31.256 80.0078 31.592C80.0078 31.736 80.0078 31.832 80.0558 31.928C80.1998 33.224 80.8718 33.752 81.7838 34.232C82.4557 34.664 83.0318 35 83.7518 35.288ZM76.3118 8.6C76.3598 8.6 76.3118 8.504 76.4078 8.504C76.4078 8.504 76.4558 8.552 76.5038 8.552C77.8478 12.824 78.4718 18.008 79.1918 23.144C77.8478 23.672 76.1198 23.768 74.4398 23.864C74.5358 22.568 74.8718 21.752 75.1118 20.408C75.3518 19.064 75.3038 17.624 75.3997 16.184C75.5438 13.64 76.1678 11.144 76.3118 8.6ZM111.263 18.44C110.927 15.656 110.447 12.968 110.063 10.376C109.871 9.032 109.439 7.112 109.199 5.816C108.959 4.616 108.623 3.368 108.191 2.264L108.095 2.024C107.663 1.256 107.231 0.487998 105.887 0.487998C105.695 0.487998 105.455 0.487998 105.215 0.535997C105.119 0.535997 105.023 0.584 104.927 0.584C103.103 0.775997 100.559 1.016 99.5509 3.32C99.2629 3.992 99.0229 6.536 98.9749 7.208C98.3029 13.976 98.0629 20.216 97.6789 27.032C97.6309 28.136 97.5829 29.672 97.5829 30.824C97.5349 32.264 97.4389 34.136 97.2469 35.048C97.7749 35.384 98.6869 35.576 99.5989 35.576C100.415 35.576 101.231 35.432 101.759 34.952C102.191 34.568 102.287 33.8 102.287 32.984C102.287 32.312 102.239 31.592 102.239 30.92V30.488C102.239 29.432 102.239 28.424 102.143 27.032C102.143 25.544 102.143 23.72 102.431 19.592C102.527 18.2 102.719 16.616 102.863 15.224C102.863 14.024 103.247 12.536 103.631 11.192C104.447 13.064 104.735 18.104 105.455 20.888L105.647 21.608C106.319 24.344 107.087 27.512 109.103 28.52C109.679 28.856 110.591 29.144 111.407 29.144C112.175 29.144 112.847 28.904 113.183 28.232V27.992C113.183 27.368 113.471 26.84 113.615 26.264C113.759 25.4 113.759 24.584 113.999 23.72C114.095 23.096 114.383 22.472 114.527 21.848C114.911 20.552 115.151 19.304 115.487 18.104L115.967 16.136C116.399 14.696 116.927 11.768 117.743 10.76C118.175 12.44 118.271 14.36 118.271 16.376C118.271 18.056 118.223 19.832 118.223 21.656V25.544C118.223 27.128 118.223 28.664 118.367 30.152C118.511 31.544 118.271 33.128 118.847 34.088C119.231 34.664 120.383 35.144 121.055 35.336C121.823 35.528 122.831 35.672 123.695 35.672C124.271 35.672 124.751 35.624 125.183 35.48C125.567 35.336 126.047 35.048 126.047 34.664V34.616C126.047 34.328 125.759 33.848 125.663 33.56C125.567 33.08 125.471 32.36 125.423 31.832C125.423 29.336 125.327 26.888 125.327 24.2C125.327 21.896 125.327 19.592 125.231 17.288C125.135 14.504 124.943 11.72 124.703 8.792C124.607 7.256 124.463 5.192 124.223 3.944C124.031 1.88 123.071 1.832 121.583 0.871999C121.343 0.727998 121.247 0.584 121.007 0.535997C120.959 0.535997 120.863 0.487998 120.767 0.487998C120.479 0.487998 120.047 0.584 119.711 0.679998H119.663C118.559 0.967998 115.919 1.832 115.535 3.368C115.103 5 114.863 6.392 114.383 8.072C113.711 10.376 112.943 13.16 112.367 15.32C112.079 16.424 111.791 17.528 111.263 18.44ZM142.721 35.288C143.105 35.432 143.441 35.48 143.777 35.48C144.977 35.48 145.841 34.664 145.841 33.176V32.84C145.841 31.784 145.457 31.064 145.313 29.96C144.977 27.752 144.737 26.072 144.449 23.816C144.209 21.608 144.113 19.352 143.729 17.096C143.153 13.688 142.481 10.904 141.713 7.832C141.473 6.824 141.377 5.768 141.137 4.76C140.753 3.416 139.937 1.928 139.025 1.256C138.593 0.871999 137.969 0.584 137.441 0.584H137.249C136.625 0.584 135.665 0.775997 135.089 1.016C134.177 1.304 133.457 2.168 133.025 2.984C132.977 3.08 132.977 3.224 132.977 3.32C132.977 3.8 133.217 4.088 133.265 4.568C133.265 5.24 132.881 6.152 132.737 6.92C131.729 10.952 130.961 14.936 130.145 18.968C129.473 22.136 128.993 25.304 128.417 28.712C128.225 29.672 127.841 32.072 127.505 32.792C127.312 33.08 126.928 33.176 126.832 33.416C126.832 33.992 127.024 34.184 127.168 34.424C127.457 34.808 127.937 34.952 128.561 35C129.041 35.144 129.617 35.336 130.097 35.336H130.241C130.913 35.288 131.681 34.904 131.825 34.376C131.873 34.28 131.873 34.184 131.873 34.088C131.873 33.896 131.825 33.704 131.825 33.512V33.08C131.825 31.304 132.305 28.664 132.881 26.504C133.265 26.936 133.697 26.984 134.129 26.984H135.857C136.481 26.984 137.105 26.936 137.585 26.744C137.969 26.552 138.065 26.12 138.449 26.12C138.497 27.848 139.073 28.616 139.073 30.488C139.073 30.872 138.977 31.256 138.977 31.592C138.977 31.736 138.977 31.832 139.025 31.928C139.169 33.224 139.841 33.752 140.753 34.232C141.424 34.664 142.001 35 142.721 35.288ZM135.281 8.6C135.329 8.6 135.281 8.504 135.377 8.504C135.377 8.504 135.425 8.552 135.473 8.552C136.817 12.824 137.441 18.008 138.161 23.144C136.817 23.672 135.089 23.768 133.409 23.864C133.505 22.568 133.841 21.752 134.081 20.408C134.321 19.064 134.273 17.624 134.368 16.184C134.513 13.64 135.137 11.144 135.281 8.6ZM165.781 2.888C165.349 1.736 164.245 0.919998 162.949 0.823999H162.613C162.277 0.823999 161.845 0.823999 161.461 0.871999C160.069 0.967998 158.245 1.16 156.421 1.16C155.989 1.16 155.605 1.112 155.173 1.112C154.549 1.064 153.829 1.064 153.109 1.064C151.141 1.064 148.933 1.16 147.829 1.16C146.773 1.16 145.765 0.727998 145.189 0.727998C144.853 0.727998 144.661 0.871999 144.613 1.304C144.613 1.688 144.517 2.072 144.517 2.408V2.552C144.517 2.744 144.661 3.08 144.709 3.368C144.901 4.376 145.141 5.096 145.669 5.528C146.245 5.864 146.917 5.768 147.685 5.912L149.509 6.056C150.181 6.104 150.709 6.104 151.381 6.2C151.477 7.592 151.525 9.08 151.525 10.616C151.525 13.304 151.381 16.088 151.237 18.824C151.141 20.792 151.045 23.72 151.045 25.688C151.045 27.032 150.949 28.376 150.949 29.672C150.949 30.44 150.949 31.16 151.093 31.832C151.285 33.032 152.245 34.136 153.061 34.712C153.877 35.336 155.557 35.336 156.709 35.72C156.805 35.672 157.285 35.624 157.573 35.576C157.813 35.336 157.861 35.048 157.861 34.76C157.861 34.52 157.813 34.28 157.813 34.04C157.813 32.12 158.101 30.152 158.101 28.328V27.368C158.101 26.6 158.245 25.784 158.245 25.016V22.904C158.245 22.136 158.245 21.368 158.197 20.792C158.101 19.784 158.101 18.776 158.101 17.768C158.101 16.76 158.101 15.752 158.149 14.696C158.149 13.88 158.101 13.064 158.101 12.248V11.624C158.197 10.232 158.245 8.456 158.245 6.968V6.008C158.629 6.056 158.965 6.056 159.253 6.056C160.261 6.056 160.789 5.864 161.845 5.816C162.421 5.768 162.853 5.672 163.333 5.528C163.381 5.528 163.381 5.48 163.429 5.48C164.005 5.336 164.581 5.24 165.205 5.24H165.541C165.781 4.952 165.829 4.568 165.829 4.136C165.829 3.704 165.781 3.272 165.781 2.888ZM175.286 3.8C176.294 4.28 176.63 5.96 176.726 7.16C176.678 7.928 176.246 8.84 176.246 9.512V9.752C176.39 10.472 177.398 10.472 178.022 10.616C178.31 10.712 178.646 10.904 178.934 10.952C179.126 11 179.366 11 179.558 11C180.422 11 181.142 10.664 181.43 10.136C181.526 9.896 181.526 9.464 181.574 9.128L181.622 8.936C181.766 7.928 181.91 6.872 181.91 5.768C181.91 5.096 181.862 4.376 181.718 3.704C181.526 2.84 181.142 1.64 180.614 1.16C180.038 0.584 178.549 0.247998 177.35 0.247998C175.67 0.247998 173.99 0.871999 172.262 1.16C171.493 1.304 170.582 1.256 169.958 1.496C169.526 1.64 169.046 2.312 168.662 2.744C168.086 3.56 167.798 3.992 167.654 4.952C167.414 5.912 166.886 6.824 166.694 7.88C166.021 11.192 165.494 14.696 165.446 18.536V19.064C165.446 21.32 165.734 23.432 166.118 25.544C166.31 27.176 166.742 28.856 167.222 30.248C167.75 31.688 168.854 32.792 170.006 33.8C170.534 34.232 171.206 34.712 171.83 35.048C172.742 35.528 174.374 36.056 175.67 36.056H175.958C176.63 36.008 177.494 35.768 178.31 35.528C178.358 35.528 178.358 35.48 178.406 35.48C179.174 35.192 179.99 34.568 180.422 34.088C180.998 33.32 181.334 32.408 181.334 31.256V31.016C181.334 30.536 181.334 29.576 181.094 29.144C180.758 28.664 179.126 27.944 178.262 27.944C178.118 27.944 178.022 27.944 177.926 27.992V28.184C177.926 29.72 177.35 30.488 176.726 31.208C176.39 31.688 176.198 32.264 175.622 32.552C175.094 32.312 174.71 31.976 174.326 31.688C173.318 30.344 172.55 27.128 172.118 25.256C172.022 24.776 171.83 24.104 171.83 23.672C171.542 22.28 171.686 20.792 171.59 19.352C171.59 16.808 172.118 14.504 172.598 11.96C172.838 10.808 172.982 9.704 173.27 8.648C173.462 7.832 174.758 4.232 175.286 3.8ZM190.556 16.088C190.7 14.024 190.748 12.008 190.796 9.848C190.796 7.832 190.988 6.584 191.084 4.616C191.084 4.184 191.18 3.272 191.18 2.552C191.18 2.216 191.132 1.928 191.084 1.736C190.844 1.112 189.5 0.775997 188.78 0.775997H188.54C187.052 1.016 184.844 1.352 184.22 2.504C184.124 2.648 184.076 2.84 184.076 2.984C184.076 3.416 184.364 3.8 184.46 4.232C184.508 4.568 184.508 4.904 184.508 5.24C184.508 5.912 184.46 6.584 184.46 7.4V9.704C184.46 10.136 184.46 10.568 184.412 11C184.268 13.4 184.22 15.944 184.22 18.536C184.22 22.04 184.316 25.688 184.364 29.192C184.364 29.72 184.316 30.584 184.316 31.4C184.316 32.216 184.364 33.032 184.508 33.416C184.892 34.616 186.764 35.48 188.204 35.576H188.54C189.26 35.576 189.98 35.336 190.124 34.856C190.172 34.76 190.172 34.664 190.172 34.568C190.172 34.328 190.124 34.136 190.076 33.848C190.028 33.464 190.028 32.936 190.028 32.456V30.104C190.172 27.176 190.316 23.816 190.412 20.936C190.94 20.936 191.42 21.272 191.996 21.416C192.284 21.464 192.572 21.464 192.86 21.464C194.012 21.464 195.26 21.176 196.316 21.176H196.508C196.556 22.28 196.556 23.384 196.556 24.44C196.556 26.168 196.508 27.896 196.46 29.624V29.96C196.46 30.488 196.412 31.256 196.412 31.928C196.412 32.6 196.46 33.224 196.604 33.608C196.844 34.28 197.756 34.952 198.716 35.288C199.292 35.48 200.252 35.672 201.068 35.672C201.884 35.672 202.556 35.48 202.7 34.808V34.616C202.7 34.184 202.46 33.704 202.46 33.176V33.032C202.46 32.648 202.604 32.264 202.604 31.88C202.652 31.448 202.652 30.968 202.652 30.44C202.652 29.384 202.604 28.184 202.604 27.176V25.736C202.604 24.536 202.556 23.336 202.556 22.136C202.556 20.6 202.7 19.064 202.796 17.48C202.796 16.52 202.748 15.608 202.748 14.648V14.024C202.748 12.728 202.844 11.432 202.844 10.232C202.844 9.8 202.7 9.416 202.7 9.032C202.748 8.36 202.94 7.496 202.988 6.776C202.988 5.672 202.988 4.568 202.892 3.56V2.984C202.892 2.312 202.844 1.736 202.604 1.304C202.316 0.823999 201.644 0.631999 200.924 0.631999C199.82 0.631999 198.524 1.064 197.804 1.496C196.988 1.928 196.652 2.552 196.652 3.464C196.652 3.896 196.748 4.424 196.892 4.952C196.796 5.864 196.796 6.872 196.796 7.88C196.796 9.416 196.844 11.048 196.844 12.584C196.844 13.784 196.844 14.888 196.7 15.896C195.356 16.04 193.916 16.232 192.476 16.232C191.852 16.232 191.18 16.184 190.556 16.088Z" fill="white"/>
</svg>
