<svg width="24" height="24" viewBox="0 0 24 24" fill="none" xmlns="http://www.w3.org/2000/svg">
<path fillRule="evenodd" clipRule="evenodd" d="M8.7516 17.6482C8.52663 17.4231 8.40026 17.118 8.40026 16.7998C8.40026 16.4816 8.52663 16.1764 8.7516 15.9514L12.7032 11.9998L8.7516 8.04817C8.63699 7.93747 8.54557 7.80506 8.48268 7.65865C8.41979 7.51225 8.38668 7.35478 8.3853 7.19545C8.38391 7.03611 8.41428 6.8781 8.47461 6.73062C8.53495 6.58315 8.62405 6.44917 8.73673 6.33649C8.8494 6.22382 8.98338 6.13472 9.13085 6.07438C9.27833 6.01404 9.43635 5.98368 9.59568 5.98507C9.75502 5.98645 9.91248 6.01956 10.0589 6.08245C10.2053 6.14534 10.3377 6.23676 10.4484 6.35137L15.2484 11.1514C15.4734 11.3764 15.5997 11.6816 15.5997 11.9998C15.5997 12.318 15.4734 12.6231 15.2484 12.8482L10.4484 17.6482C10.2234 17.8731 9.9182 17.9995 9.6 17.9995C9.2818 17.9995 8.97663 17.8731 8.7516 17.6482Z" fill="#D3D6D9"/>
</svg>
