<svg width="10" height="10" viewBox="0 0 16 16" fill="currentColor" xmlns="http://www.w3.org/2000/svg">
<path fillRule="evenodd" clipRule="evenodd" d="M12.7076 3.15525C12.3175 2.78158 11.6853 2.78158 11.2953 3.15525L8.00626 6.30723L4.71724 3.15525C4.32533 2.79251 3.70238 2.79769 3.31711 3.16691C2.93184 3.53612 2.92643 4.13312 3.30494 4.50869L6.59396 7.66067L3.30494 10.8126C3.0453 11.053 2.94117 11.4089 3.03258 11.7435C3.12398 12.0782 3.3967 12.3395 3.7459 12.4271C4.09511 12.5147 4.46646 12.4149 4.71724 12.1661L8.00626 9.01412L11.2953 12.1661C11.6872 12.5288 12.3101 12.5237 12.6954 12.1544C13.0807 11.7852 13.0861 11.1882 12.7076 10.8126L9.41855 7.66067L12.7076 4.50869C13.0975 4.13492 13.0975 3.52902 12.7076 3.15525Z" fill="#2a2846"/>
</svg>
