<svg width="10" height="10" viewBox="0 0 14 12" fill="currentColor " xmlns="http://www.w3.org/2000/svg">
<path fillRule="evenodd" clipRule="evenodd" d="M0.316503 3.18306C0.80903 1.51033 2.4134 0.284668 4.31064 0.284668C5.35401 0.284668 6.26712 0.707353 6.99619 1.31787C7.72548 0.70718 8.63851 0.284668 9.68174 0.284668C11.6682 0.284668 13.334 1.62906 13.7384 3.42265C13.8137 3.69786 13.8441 3.97641 13.839 4.2509C13.8286 4.82946 13.6744 5.38696 13.4767 5.8737C12.9054 7.28204 11.8549 8.55122 10.6749 9.48804C9.49491 10.4249 8.19228 11.0491 6.99521 11.0491C5.80344 11.0491 4.51037 10.4298 3.33603 9.49927C2.16559 8.57185 1.12171 7.31467 0.538182 5.91956C0.128813 5.06283 0.0494191 4.0895 0.316503 3.18306Z" fill="#2a2846"/>
</svg>
