<svg width="54" height="54" viewBox="0 0 54 54" fill="none" xmlns="http://www.w3.org/2000/svg">
<rect width="54" height="54" rx="27" fill="white"/>
<path fill-rule="evenodd" clip-rule="evenodd" d="M13.4657 21.7514C14.4631 18.2168 17.712 15.627 21.5539 15.627C23.6667 15.627 25.5157 16.5201 26.9921 17.8102C28.4689 16.5197 30.3178 15.627 32.4303 15.627C36.4528 15.627 39.8262 18.4677 40.645 22.2576C40.7975 22.8392 40.8591 23.4278 40.8487 24.0078C40.8277 25.2303 40.5155 26.4083 40.1151 27.4368C38.9583 30.4127 36.831 33.0945 34.4415 35.0741C32.052 37.0536 29.4142 38.3726 26.9901 38.3726C24.5768 38.3726 21.9583 37.064 19.5803 35.0978C17.2102 33.1381 15.0963 30.4817 13.9146 27.5337C13.0857 25.7234 12.9249 23.6667 13.4657 21.7514Z" fill="url(#paint0_linear_14_87)"/>
<defs>
<linearGradient id="paint0_linear_14_87" x1="36.6689" y1="8.40367" x2="17.8875" y2="34.0892" gradientUnits="userSpaceOnUse">
<stop stop-color="#FF957D"/>
<stop offset="1" stop-color="#F85C5C"/>
</linearGradient>
</defs>
</svg>
