<svg width="24" height="24" viewBox="0 0 24 24" fill="none" xmlns="http://www.w3.org/2000/svg">
<rect x="0.5" y="0.5" width="23" height="23" rx="11.5" fill="#FFCCCC"/>
<path d="M16.5334 10.6064C15.7801 10.6064 15.1068 10.9731 14.6868 11.5331C14.2668 10.9731 13.5934 10.6064 12.8401 10.6064C11.5668 10.6064 10.5334 11.6464 10.5334 12.9264C10.5334 13.4198 10.6134 13.8798 10.7468 14.2998C11.4001 16.3731 13.4268 17.6198 14.4268 17.9598C14.5668 18.0064 14.8001 18.0064 14.9401 17.9598C15.9401 17.6198 17.9668 16.3798 18.6201 14.2998C18.7601 13.8731 18.8334 13.4198 18.8334 12.9264C18.8401 11.6464 17.8068 10.6064 16.5334 10.6064Z" fill="#FE5D5D"/>
<path d="M17.8333 9.56023C17.8333 9.71356 17.6799 9.81356 17.5333 9.77356C16.6333 9.54023 15.6466 9.73356 14.8999 10.2669C14.7533 10.3736 14.5533 10.3736 14.4133 10.2669C13.8866 9.88023 13.2466 9.66689 12.5733 9.66689C10.8533 9.66689 9.45325 11.0736 9.45325 12.8069C9.45325 14.6869 10.3533 16.0936 11.2599 17.0336C11.3066 17.0802 11.2666 17.1602 11.2066 17.1336C9.38659 16.5136 5.33325 13.9402 5.33325 9.56023C5.33325 7.62689 6.88659 6.06689 8.80659 6.06689C9.94659 6.06689 10.9533 6.61356 11.5866 7.46023C12.2266 6.61356 13.2333 6.06689 14.3666 6.06689C16.2799 6.06689 17.8333 7.62689 17.8333 9.56023Z" fill="#FE5D5D"/>
<rect x="0.5" y="0.5" width="23" height="23" rx="11.5" stroke="white"/>
</svg>
