<svg width="36" height="36" viewBox="0 0 36 36" fill="none" xmlns="http://www.w3.org/2000/svg">
<path d="M18 36C27.9411 36 36 27.9411 36 18C36 8.05887 27.9411 0 18 0C8.05887 0 0 8.05887 0 18C0 27.9411 8.05887 36 18 36Z" fill="#AAAAAA"/>
<path d="M26.8298 18C26.8292 17.6628 26.6349 17.3534 26.3293 17.2099L14.5736 11.6414C14.2575 11.4911 13.8813 11.5443 13.6196 11.7763C13.3572 12.0089 13.2589 12.3746 13.3696 12.7081L14.7889 16.9636L21.0052 18L14.7877 19.0363L13.3684 23.2919C13.2644 23.6074 13.3473 23.9539 13.5806 24.1872C13.5936 24.2002 13.6066 24.2119 13.6196 24.2237C13.8819 24.4563 14.2575 24.5101 14.5749 24.3598L26.3305 18.7913C26.6349 18.6465 26.8298 18.3378 26.8298 18Z" fill="white"/>
</svg>
