<svg width="36" height="36" viewBox="0 0 36 36" fill="none" xmlns="http://www.w3.org/2000/svg">
<path d="M18 36C27.9411 36 36 27.9411 36 18C36 8.05887 27.9411 0 18 0C8.05887 0 0 8.05887 0 18C0 27.9411 8.05887 36 18 36Z" fill="#7A56FE"/>
<path d="M26.8298 18.0002C26.8291 17.663 26.6349 17.3537 26.3292 17.2101L14.5736 11.6417C14.2574 11.4913 13.8812 11.5445 13.6195 11.7765C13.3572 12.0092 13.2588 12.3748 13.3695 12.7083L14.7889 16.9639L21.0051 18.0002L14.7876 19.0366L13.3683 23.2921C13.2644 23.6077 13.3473 23.9542 13.5805 24.1874C13.5935 24.2004 13.6065 24.2122 13.6195 24.2239C13.8818 24.4566 14.2574 24.5104 14.5748 24.36L26.3305 18.7916C26.6349 18.6468 26.8298 18.338 26.8298 18.0002Z" fill="white"/>
</svg>
