<svg width="16" height="11" viewBox="0 0 16 11" fill="none" xmlns="http://www.w3.org/2000/svg">
<path d="M7.55078 10H8.75049L5.37354 0.840332H4.24365L0.866699 10H2.06641L2.98682 7.37842H6.63037L7.55078 10ZM4.75781 2.31934H4.85938L6.29395 6.40723H3.32324L4.75781 2.31934ZM12.0576 10.1206C12.9717 10.1206 13.7207 9.7207 14.165 8.99072H14.2666V10H15.3076V5.31543C15.3076 3.89355 14.3745 3.03662 12.7051 3.03662C11.2451 3.03662 10.166 3.76025 10.02 4.8584H11.1245C11.2769 4.31885 11.8481 4.00781 12.667 4.00781C13.689 4.00781 14.2158 4.47119 14.2158 5.31543V5.9375L12.2417 6.05811C10.6484 6.15332 9.74707 6.85791 9.74707 8.08301C9.74707 9.3335 10.731 10.1206 12.0576 10.1206ZM12.2607 9.16211C11.4673 9.16211 10.877 8.75586 10.877 8.05762C10.877 7.37207 11.334 7.01025 12.375 6.94043L14.2158 6.81982V7.44824C14.2158 8.42578 13.3843 9.16211 12.2607 9.16211Z" fill="#4E5A65"/>
</svg>
